<?xml version="1.0" standalone="no"?>
<!DOCTYPE svg PUBLIC "-//W3C//DTD SVG 20010904//EN"
 "http://www.w3.org/TR/2001/REC-SVG-20010904/DTD/svg10.dtd">
<svg version="1.0" xmlns="http://www.w3.org/2000/svg"
 width="780.000000pt" height="338.000000pt" viewBox="0 0 780.000000 338.000000"
 preserveAspectRatio="xMidYMid meet">
<metadata>
Created by potrace 1.15, written by Peter Selinger 2001-2017
</metadata>
<g transform="translate(0.000000,338.000000) scale(0.100000,-0.100000)"
fill="#000000" stroke="none">
<path d="M2000 3350 c0 -29 -2 -30 -45 -30 -66 0 -55 -16 18 -24 68 -8 214
-54 292 -94 156 -78 295 -198 413 -357 72 -97 172 -289 432 -830 386 -804 462
-927 735 -1201 321 -322 676 -534 1102 -658 l91 -27 157 75 156 75 -83 83
c-47 46 -106 112 -132 148 -54 73 -140 215 -151 249 -4 12 -77 165 -162 339
-85 174 -177 362 -203 417 -207 434 -347 694 -374 696 -19 0 -96 106 -96 131
0 38 -186 240 -339 368 -29 25 -68 57 -85 72 -159 133 -526 326 -786 412 -198
66 -488 126 -605 126 -32 0 -35 2 -35 30 l0 30 -150 0 -150 0 0 -30z"/>
</g>
</svg>
